<svg width="136" height="156" viewBox="0 0 136 156" fill="none" xmlns="http://www.w3.org/2000/svg">
<path d="M76.9061 67.8779L76.3551 72.344L76.9061 67.8779ZM6.23136 55.9523C4.27204 57.4813 3.92316 60.3091 5.45212 62.2684L30.3679 94.1973C31.8968 96.1566 34.7246 96.5055 36.6839 94.9766C38.6432 93.4476 38.9921 90.6198 37.4632 88.6605L15.3158 60.2792L43.6971 38.1319C45.6564 36.6029 46.0053 33.7751 44.4764 31.8158C42.9474 29.8565 40.1196 29.5076 38.1603 31.0366L6.23136 55.9523ZM115.238 102.778L119.633 101.812L115.238 102.778ZM93.9255 73.5968L91.6678 77.4895L93.9255 73.5968ZM130.895 153.034L128.08 140.228L119.29 142.161L122.105 154.966L130.895 153.034ZM122.449 114.617L119.633 101.812L110.843 103.744L113.659 116.55L122.449 114.617ZM119.633 101.812C118.895 98.4509 117.813 95.205 116.421 92.1182L108.217 95.8179C109.355 98.3416 110.239 100.996 110.843 103.744L119.633 101.812ZM104.44 75.7136C101.923 73.4484 99.16 71.4307 96.1833 69.7042L91.6678 77.4895C94.1024 78.9016 96.3615 80.5514 98.4193 82.4033L104.44 75.7136ZM96.1833 69.7042C94.7465 68.8709 93.2713 68.1122 91.7638 67.4301L88.0539 75.6299C89.2866 76.1876 90.4929 76.808 91.6678 77.4895L96.1833 69.7042ZM82.353 64.2678C80.7395 63.9012 79.1056 63.6151 77.4571 63.4118L76.3551 72.344C77.7031 72.5103 79.0392 72.7442 80.3586 73.0441L82.353 64.2678ZM77.4571 63.4118L60.4805 61.3173L59.3785 70.2495L76.3551 72.344L77.4571 63.4118ZM26.5274 57.1283L9.55078 55.0338L8.44877 63.9661L25.4253 66.0606L26.5274 57.1283ZM76.9061 67.8779L75.8041 76.8102L76.9061 67.8779ZM3.46295 52.4047C-0.455693 55.4626 -1.15345 61.1182 1.90446 65.0368L51.7359 128.895C54.7938 132.813 60.4494 133.511 64.3681 130.453C68.2867 127.395 68.9845 121.74 65.9266 117.821L21.6319 61.0585L78.3945 16.7638C82.3131 13.7059 83.0108 8.05031 79.9529 4.13168C76.895 0.21304 71.2394 -0.484713 67.3208 2.57319L3.46295 52.4047ZM115.238 102.778L124.028 100.845L115.238 102.778ZM93.9255 73.5968L89.41 81.3821L93.9255 73.5968ZM135.29 152.067L132.475 139.262L114.895 143.127L117.71 155.933L135.29 152.067ZM126.844 113.651L124.028 100.845L106.448 104.711L109.264 117.516L126.844 113.651ZM124.028 100.845C123.222 97.1786 122.042 93.6367 120.523 90.2683L104.115 97.6677C105.126 99.9098 105.911 102.268 106.448 104.711L124.028 100.845ZM107.45 72.3688C104.704 69.8969 101.689 67.6953 98.441 65.8116L89.41 81.3821C91.5737 82.637 93.5808 84.1029 95.409 85.7482L107.45 72.3688ZM98.441 65.8116C96.8733 64.9023 95.2637 64.0744 93.6188 63.3302L86.199 79.7298C87.2943 80.2254 88.3661 80.7766 89.41 81.3821L98.441 65.8116ZM83.3503 59.8797C81.5897 59.4796 79.8068 59.1675 78.0081 58.9456L75.8041 76.8102C77.0018 76.9579 78.189 77.1658 79.3613 77.4322L83.3503 59.8797ZM78.0081 58.9456L61.0315 56.8511L58.8275 74.7157L75.8041 76.8102L78.0081 58.9456ZM27.0784 52.6622L10.1018 50.5677L7.89776 68.4323L24.8743 70.5267L27.0784 52.6622Z" fill="black" fill-opacity="0.32"/>
</svg>
