<svg width="154" height="169" viewBox="0 0 154 169" fill="none" xmlns="http://www.w3.org/2000/svg">
<path d="M76.9061 68.0419L76.3551 72.508L76.3551 72.508L76.9061 68.0419ZM6.23136 56.1163C4.27204 57.6453 3.92316 60.4731 5.45212 62.4324L30.3679 94.3613C31.8968 96.3206 34.7246 96.6695 36.6839 95.1406C38.6432 93.6116 38.9921 90.7838 37.4632 88.8245L15.3158 60.4432L43.6971 38.2959C45.6564 36.7669 46.0053 33.9391 44.4764 31.9798C42.9474 30.0205 40.1196 29.6716 38.1603 31.2006L6.23136 56.1163ZM115.238 102.942L119.633 101.976L119.633 101.976L115.238 102.942ZM93.9255 73.7608L91.6678 77.6535L91.6678 77.6535L93.9255 73.7608ZM130.895 153.198L128.08 140.392L119.29 142.325L122.105 155.13L130.895 153.198ZM122.449 114.781L119.633 101.976L110.843 103.908L113.659 116.714L122.449 114.781ZM119.633 101.976C118.895 98.6149 117.813 95.369 116.421 92.2822L108.217 95.9819C109.355 98.5056 110.239 101.16 110.843 103.908L119.633 101.976ZM104.44 75.8776C101.923 73.6124 99.16 71.5947 96.1833 69.8682L91.6678 77.6535C94.1024 79.0656 96.3615 80.7154 98.4193 82.5673L104.44 75.8776ZM96.1833 69.8682C94.7465 69.0349 93.2713 68.2762 91.7638 67.5941L88.0539 75.7939C89.2866 76.3516 90.4929 76.972 91.6678 77.6535L96.1833 69.8682ZM82.353 64.4318C80.7395 64.0652 79.1056 63.7791 77.4571 63.5758L76.3551 72.508C77.7031 72.6743 79.0392 72.9082 80.3586 73.2081L82.353 64.4318ZM77.4571 63.5758L60.4805 61.4813L59.3785 70.4136L76.3551 72.508L77.4571 63.5758ZM26.5274 57.2923L9.55078 55.1978L8.44877 64.1301L25.4253 66.2246L26.5274 57.2923ZM76.9061 68.0419L75.8041 76.9742L75.8041 76.9742L76.9061 68.0419ZM3.46294 52.5687C-0.455691 55.6266 -1.15345 61.2822 1.90446 65.2008L51.7359 129.059C54.7938 132.977 60.4494 133.675 64.3681 130.617C68.2867 127.559 68.9845 121.904 65.9266 117.985L21.6319 61.2225L78.3944 16.9278C82.3131 13.8699 83.0108 8.21431 79.9529 4.29568C76.895 0.377043 71.2394 -0.320715 67.3208 2.73719L3.46294 52.5687ZM115.238 102.942L124.028 101.009L124.028 101.009L115.238 102.942ZM93.9255 73.7608L89.41 81.5461L89.41 81.5461L93.9255 73.7608ZM135.29 152.231L132.475 139.426L114.895 143.291L117.71 156.097L135.29 152.231ZM126.844 113.815L124.028 101.009L106.448 104.875L109.264 117.68L126.844 113.815ZM124.028 101.009C123.222 97.3426 122.042 93.8007 120.523 90.4323L104.115 97.8317C105.126 100.074 105.911 102.432 106.448 104.875L124.028 101.009ZM107.45 72.5328C104.704 70.0609 101.689 67.8593 98.441 65.9756L89.41 81.5461C91.5737 82.801 93.5808 84.2669 95.409 85.9122L107.45 72.5328ZM98.441 65.9756C96.8733 65.0663 95.2637 64.2384 93.6187 63.4942L86.199 79.8938C87.2943 80.3894 88.3661 80.9406 89.41 81.5461L98.441 65.9756ZM83.3503 60.0437C81.5897 59.6436 79.8068 59.3315 78.0081 59.1096L75.8041 76.9742C77.0018 77.1219 78.189 77.3298 79.3613 77.5962L83.3503 60.0437ZM78.0081 59.1096L61.0315 57.0151L58.8275 74.8797L75.8041 76.9742L78.0081 59.1096ZM27.0784 52.8262L10.1018 50.7317L7.89776 68.5963L24.8743 70.6907L27.0784 52.8262Z" fill="white"/>
</svg>
