<svg width="110" height="110" viewBox="0 0 110 110" fill="none" xmlns="http://www.w3.org/2000/svg">
<path d="M66.8281 84.4688C68.1406 84.6875 69.125 84.7969 69.7812 84.7969C70.4375 84.7969 71.0781 84.7344 71.7031 84.6094C72.3594 84.4531 72.9375 84.2188 73.4375 83.9062C74.5625 83.2188 75.125 82.1406 75.125 80.6719C75.125 79.4531 74.75 78.0938 74 76.5938L69.5938 65.6719H39.9219L34.6719 78.9844C34.1719 80.2031 33.9219 81.0938 33.9219 81.6562C33.9219 82.1875 34 82.5938 34.1562 82.875C34.3438 83.125 34.6094 83.3438 34.9531 83.5312C35.3281 83.7188 35.7812 83.875 36.3125 84L38.2344 84.5156C40.2969 84.8594 41.625 85.1719 42.2188 85.4531C43.4375 86.0469 44.0469 86.9219 44.0469 88.0781C44.0469 88.9219 43.8125 89.6406 43.3438 90.2344C42.75 90.0781 42.2031 90 41.7031 90H22.625C18.4688 90 16.3906 88.8594 16.3906 86.5781C16.3906 85.5156 16.625 84.6562 17.0938 84C18.25 84.3125 19.2188 84.4688 20 84.4688C20.8125 84.4688 21.4844 84.3438 22.0156 84.0938C22.5781 83.8438 23.1094 83.4219 23.6094 82.8281C24.4531 81.7969 25.4375 79.7344 26.5625 76.6406L49.7188 20.5781C50.375 19.0781 52.2344 18.0469 55.2969 17.4844C56.1406 17.3281 57.0312 17.25 57.9688 17.25C59.875 17.25 61.0469 17.7656 61.4844 18.7969L66.1719 30.5156C75.2031 51.8281 80.4219 64.2656 81.8281 67.8281L86.0469 78.8906C86.8906 81.2969 87.5938 82.7812 88.1562 83.3438C88.7188 83.9062 89.3281 84.2969 89.9844 84.5156C90.6406 84.7344 91.3125 84.9219 92 85.0781C92.7188 85.2031 93.3438 85.375 93.875 85.5938C95.0625 86.125 95.6562 86.9375 95.6562 88.0312C95.6562 88.875 95.4219 89.5938 94.9531 90.1875C94.3594 90.0312 93.8281 89.9531 93.3594 89.9531H71C69.4062 89.9531 68.1562 89.7656 67.25 89.3906C66.375 88.9844 65.9375 88.375 65.9375 87.5625C65.9375 86.1562 66.2344 85.125 66.8281 84.4688ZM66.875 59.0156L54.5938 28.6406L42.5469 59.0156H66.875Z" fill="black"/>
<rect x="0.5" y="0.5" width="109" height="109" stroke="black"/>

</svg>
